<svg id="Layer_2" data-name="Layer 2" xmlns="http://www.w3.org/2000/svg" width="150.82" height="80.463" viewBox="0 0 150.82 80.463">
  <g id="Layer_1-2" data-name="Layer 1-2">
    <g id="Group_39741" data-name="Group 39741" transform="translate(11.217 47.624)">
      <path id="Path_1" data-name="Path 1" d="M-248.369,517.431H-251.3c5.321-1.27,8.991-5.215,8.991-10.217,0-6.088-5.452-10.533-12.7-10.533h-10.948v.422c2.536,0,2.965.53,2.965,3.227v13.924c0,2.647-.424,3.177-2.965,3.177v.422S-248.646,517.551-248.369,517.431Zm-7.377,0c-2.536,0-2.965-.53-2.965-3.177V500.332c0-2.7.424-3.228,2.965-3.228H-255c5.763,0,7.993,2.225,7.993,10.111,0,7.94-2.222,10.217-7.993,10.217Z" transform="translate(265.964 -496.256)" fill="#fff"/>
      <path id="Path_2" data-name="Path 2" d="M-157.242,516.781v-3.689c0-1.351-.212-1.614-1.482-1.614v-.21h5.109v.21c-1.27,0-1.482.265-1.482,1.614V517.3c0,3.124.874,4.553,3.257,4.553,2.222,0,3.571-1.588,3.571-4.129v-3.792c0-1.9-.818-2.462-2.116-2.462v-.21h4.076v.219c-1.27,0-1.694.558-1.694,2.462v3.811c0,2.753-1.614,4.316-3.836,4.316C-155.709,522.058-157.242,520.18-157.242,516.781Z" transform="translate(183.447 -507.475)" fill="#fff"/>
      <path id="Path_3" data-name="Path 3" d="M-96.5,520.046v-6.953c0-1.351-.212-1.614-1.485-1.614v-.21h5.109v.21c-1.27,0-1.482.265-1.482,1.614v4.334l5.3-4.21c1.005-.952.818-1.748-1.4-1.748v-.21H-84.9l.028.21c-1.113,0-2.49.848-3.785,1.828L-92,515.859c3.283.081,4.182,1.3,4.472,3.2.318,2.222,1.3,2.778,2.172,2.248l.106.212c-2.328,2.172-4.369,1.086-4.369-1.844,0-2.536-.4-3.573-2.672-3.573l-2.075,1.667v2.275c0,1.323.212,1.588,1.482,1.588v.217h-5.1v-.212C-96.711,521.634-96.5,521.369-96.5,520.046Z" transform="translate(136.71 -507.475)" fill="#fff"/>
      <path id="Path_4" data-name="Path 4" d="M-36.219,520.077v-6.953c0-1.351-.212-1.614-1.485-1.614v-.21h10.455v3.018h-.21c0-1.614-1.007-2.808-3.071-2.808H-32.6c-1.27,0-1.482.265-1.482,1.614v3.227h1.669c2.063,0,2.672-.742,2.672-2.331h.212v4.9h-.212c0-1.614-.609-2.328-2.672-2.328h-1.669v3.493c0,1.323.212,1.588,1.482,1.588h2.49c2.075,0,3.068-1.164,3.068-2.778h.212v3H-37.7v-.212C-36.431,521.665-36.219,521.4-36.219,520.077Z" transform="translate(90.326 -507.505)" fill="#fff"/>
      <path id="Path_5" data-name="Path 5" d="M40.412,521.084a.857.857,0,0,0-.846.662h-.21v-4.793h.212c.634,3.495,2.485,4.931,4.71,4.931,1.561,0,2.275-1.383,2.275-3.919v-4.841c0-1.351-.184-1.614-1.482-1.614v-.21h5.134v.21c-1.27,0-1.482.265-1.482,1.614v4.334c0,2.831-1.535,4.631-4.578,4.631C42.187,522.089,41.339,521.084,40.412,521.084Z" transform="translate(31.031 -507.505)" fill="#fff"/>
      <path id="Path_6" data-name="Path 6" d="M94.8,520.077v-6.953c0-1.351-.212-1.614-1.482-1.614v-.21h10.455v3.018h-.212c0-1.614-1.005-2.808-3.071-2.808H98.425c-1.27,0-1.482.265-1.482,1.614v3.227h1.667c2.075,0,2.674-.742,2.674-2.331h.21v4.9h-.21c0-1.614-.609-2.328-2.674-2.328H96.942v3.493c0,1.323.212,1.588,1.482,1.588h2.487c2.063,0,3.071-1.164,3.071-2.778h.21v3H93.325v-.212C94.586,521.665,94.8,521.4,94.8,520.077Z" transform="translate(-10.489 -507.505)" fill="#fff"/>
      <path id="Path_7" data-name="Path 7" d="M152.287,520.046v-6.953c0-1.351-.184-1.614-1.48-1.614h-.159c-2.075,0-3.071,1.694-3.071,3.866h-.221V511.26h12.016v4.076h-.212c0-2.172-1.005-3.866-3.068-3.866h-.159c-1.27,0-1.482.265-1.482,1.614v6.96c0,1.323.212,1.588,1.482,1.588v.221h-5.118v-.212C152.1,521.634,152.287,521.369,152.287,520.046Z" transform="translate(-52.071 -507.475)" fill="#fff"/>
      <path id="Path_8" data-name="Path 8" d="M208.532,514.851c-.793,0-1.342.129-1.66,1.028h-.424l-.032-9.286h.424c1.745,6.563,6.669,9.844,11.01,9.844,3.6,0,5.187-1.8,5.187-3.864,0-2.434-1.844-4.023-8.1-5.452-4.977-1.153-7.253-3.283-7.253-6.563,0-3.071,2.222-5.717,7.041-5.717,3.493,0,5.982,2.013,7.781,2.013a1.774,1.774,0,0,0,1.694-1.326h.424v7.467H224.2c-1.111-4.341-5.452-7.728-9.475-7.728-2.7,0-4.076,1.383-4.076,3.228,0,1.907,1.164,3.654,5.505,4.447,5.664,1.005,9.74,3.283,9.74,7.306,0,3.546-2.225,6.616-8.046,6.616C213.457,516.861,210.174,514.851,208.532,514.851Z" transform="translate(-97.515 -494.84)" fill="#fff"/>
      <path id="Path_9" data-name="Path 9" d="M148.006,583.518c1.058,0,1.27-.29,1.27-.636s-.212-.692-1.27-.692-1.27.318-1.27.692S146.92,583.518,148.006,583.518Z" transform="translate(-51.593 -562.053)" fill="#fff"/>
      <path id="Path_10" data-name="Path 10" d="M170.9,583.218h-9.927a.87.87,0,0,0-.556-.318.567.567,0,0,0-.477.528.625.625,0,0,0,.477.5,1.075,1.075,0,0,0,.53-.293h9.925A3.688,3.688,0,0,1,170.9,583.218Z" transform="translate(-61.75 -562.599)" fill="#fff"/>
      <path id="Path_11" data-name="Path 11" d="M86.182,570.59a1.152,1.152,0,0,0,.636-.371H98.172a1.094,1.094,0,0,0,.609.371.6.6,0,0,0,.461-.5.544.544,0,0,0-.461-.528.809.809,0,0,0-.609.371H90c-2.038-.187-2.78-1.167-2.78-2.146a1.986,1.986,0,0,1,2.222-1.983,1.955,1.955,0,0,1,2.119,1.745,1.45,1.45,0,0,1-1.389,1.509H90.1c-.871,0-1.508-.5-1.508-1.217a.975.975,0,0,1,.886-1.057l.066,0a.855.855,0,0,1,.692.29.365.365,0,0,0-.265-.078.629.629,0,0,0-.609.583.6.6,0,0,0,.573.633h.035a.738.738,0,0,0,.62-.839c0-.02-.007-.04-.012-.06a.947.947,0,0,0-1.033-.768,1.227,1.227,0,0,0-1.191,1.261c0,.012,0,.025,0,.037a1.551,1.551,0,0,0,1.745,1.455,1.7,1.7,0,0,0,1.67-1.723c0-.008,0-.016,0-.024a2.113,2.113,0,0,0-2.331-1.985,2.215,2.215,0,0,0-.715,4.369H86.816a.9.9,0,0,0-.636-.371.525.525,0,0,0-.424.528A.574.574,0,0,0,86.182,570.59Z" transform="translate(-4.671 -549.256)" fill="#fff"/>
      <path id="Path_12" data-name="Path 12" d="M-101.484,584.438c-1.058,0-1.27-.293-1.27-.636s.212-.692,1.27-.692,1.27.318,1.27.692S-100.4,584.438-101.484,584.438Z" transform="translate(140.38 -562.761)" fill="#fff"/>
      <path id="Path_13" data-name="Path 13" d="M-180.455,584.845a1.074,1.074,0,0,1-.53-.293h-21.479v-.461c.272.025,10.144.037,10.494.037h10.957a.869.869,0,0,1,.558-.318.565.565,0,0,1,.475.528A.625.625,0,0,1-180.455,584.845Z" transform="translate(217.103 -563.299)" fill="#fff"/>
      <path id="Path_14" data-name="Path 14" d="M-76.188,571.51a1.152,1.152,0,0,1-.634-.371H-88.176a1.088,1.088,0,0,1-.609.371.6.6,0,0,1-.45-.5.542.542,0,0,1,.45-.528.809.809,0,0,1,.609.369H-80c2.038-.184,2.778-1.153,2.778-2.144a1.986,1.986,0,0,0-2.222-1.983,1.953,1.953,0,0,0-2.116,1.745,1.448,1.448,0,0,0,1.384,1.509h.071c.874,0,1.508-.5,1.508-1.217a.975.975,0,0,0-.886-1.057l-.066,0a.846.846,0,0,0-.692.291.348.348,0,0,1,.263-.078.629.629,0,0,1,.609.583.6.6,0,0,1-.573.633h-.035a.742.742,0,0,1-.619-.848c0-.017.006-.034.01-.051a.947.947,0,0,1,1.033-.768,1.229,1.229,0,0,1,1.193,1.263c0,.012,0,.023,0,.035a1.552,1.552,0,0,1-1.747,1.455,1.7,1.7,0,0,1-1.667-1.721v-.026a2.111,2.111,0,0,1,2.328-1.985,2.262,2.262,0,0,1,2.487,2.222,2.238,2.238,0,0,1-1.773,2.144h1.907a.9.9,0,0,1,.634-.369.523.523,0,0,1,.424.528A.574.574,0,0,1-76.188,571.51Z" transform="translate(129.977 -549.964)" fill="#fff"/>
    </g>
    <path id="Path_15" data-name="Path 15" d="M-75.294,635.852v-4h3.147v.461H-74.8v1.176h1.614v.461H-74.8v1.443h2.815v.461Z" transform="translate(130.468 -555.497)" fill="#fff"/>
    <path id="Path_16" data-name="Path 16" d="M-56.134,634.959l.29-.431a3.436,3.436,0,0,0,.883.5,2.563,2.563,0,0,0,.908.173,1.576,1.576,0,0,0,.9-.231.708.708,0,0,0,.346-.606.586.586,0,0,0-.249-.484,1.271,1.271,0,0,0-.692-.231l-.3-.021A4.57,4.57,0,0,1-55.4,633.4a1.07,1.07,0,0,1-.424-.346.831.831,0,0,1-.145-.477.947.947,0,0,1,.431-.8,1.877,1.877,0,0,1,1.123-.311,3.125,3.125,0,0,1,.989.164,3.461,3.461,0,0,1,.922.489l-.288.413a2.749,2.749,0,0,0-.779-.447,2.384,2.384,0,0,0-.839-.15,1.434,1.434,0,0,0-.747.175.514.514,0,0,0-.3.44.4.4,0,0,0,.048.194.492.492,0,0,0,.145.161,2.157,2.157,0,0,0,1.065.231c.251.014.447.03.586.046a1.679,1.679,0,0,1,.964.392,1.029,1.029,0,0,1,.355.8,1.1,1.1,0,0,1-.489.922,2.074,2.074,0,0,1-1.277.362,3.461,3.461,0,0,1-1.111-.173A3.363,3.363,0,0,1-56.134,634.959Z" transform="translate(115.725 -555.206)" fill="#fff"/>
    <path id="Path_17" data-name="Path 17" d="M-34.621,635.844V632.3H-36.3v-.461h3.871v.461h-1.688v3.543Z" transform="translate(100.466 -555.489)" fill="#fff"/>
    <path id="Path_18" data-name="Path 18" d="M-17.15,646.79a.277.277,0,0,1,.212.095.344.344,0,0,1,.085.244.329.329,0,0,1-.085.23.275.275,0,0,1-.212.092.287.287,0,0,1-.219-.092.329.329,0,0,1-.085-.23.351.351,0,0,1,.088-.242A.284.284,0,0,1-17.15,646.79Z" transform="translate(85.962 -566.993)" fill="#fff"/>
    <path id="Path_19" data-name="Path 19" d="M10.156,636.177V635.7a1.515,1.515,0,0,1,.251-.936,1.893,1.893,0,0,1,.871-.544l.583-.194q1.118-.378,1.116-.692a.5.5,0,0,0-.263-.427,1.244,1.244,0,0,0-.68-.168,2.076,2.076,0,0,0-.733.143,3.788,3.788,0,0,0-.811.461l-.314-.4a3.416,3.416,0,0,1,.89-.509,2.565,2.565,0,0,1,.906-.166,1.83,1.83,0,0,1,1.088.3.922.922,0,0,1,.422.768q0,.618-1.383,1.081l-.178.062a3.339,3.339,0,0,0-1.06.486.715.715,0,0,0-.21.546v.071a.838.838,0,0,0,.014.122h2.9v.461Z" transform="translate(64.719 -555.822)" fill="#fff"/>
    <path id="Path_20" data-name="Path 20" d="M34.492,636.305a2.253,2.253,0,0,1-1.581-.567,1.971,1.971,0,0,1-.082-2.786q.04-.042.082-.082a2.478,2.478,0,0,1,3.161,0,1.962,1.962,0,0,1,.095,2.773c-.031.033-.062.064-.095.095A2.252,2.252,0,0,1,34.492,636.305Zm0-.461a1.723,1.723,0,0,0,1.21-.438,1.512,1.512,0,0,0,.064-2.138c-.021-.022-.042-.043-.064-.064a1.9,1.9,0,0,0-2.423,0,1.505,1.505,0,0,0-.072,2.128c.023.025.047.048.072.071A1.718,1.718,0,0,0,34.492,635.844Z" transform="translate(47.684 -555.844)" fill="#fff"/>
    <path id="Path_21" data-name="Path 21" d="M59.585,636.177V635.7a1.515,1.515,0,0,1,.249-.936,1.9,1.9,0,0,1,.871-.544l.583-.194q1.118-.378,1.118-.692a.5.5,0,0,0-.265-.427,1.244,1.244,0,0,0-.68-.168,2.076,2.076,0,0,0-.733.143,3.793,3.793,0,0,0-.811.461l-.311-.4a3.415,3.415,0,0,1,.89-.509,2.565,2.565,0,0,1,.906-.166,1.83,1.83,0,0,1,1.088.3.922.922,0,0,1,.422.768q0,.618-1.383,1.081l-.178.062a3.339,3.339,0,0,0-1.06.486.722.722,0,0,0-.21.546v.071a.47.47,0,0,0,.014.122h2.893v.461Z" transform="translate(26.685 -555.822)" fill="#fff"/>
    <path id="Path_22" data-name="Path 22" d="M82.726,635.022a3.456,3.456,0,0,0,.9.616,2.3,2.3,0,0,0,.941.184,1.989,1.989,0,0,0,1.035-.244.691.691,0,0,0,.413-.588.542.542,0,0,0-.314-.51,2.126,2.126,0,0,0-.957-.166h-.171v-.461h.251a1.468,1.468,0,0,0,.692-.122.417.417,0,0,0,.214-.39.5.5,0,0,0-.265-.436,1.32,1.32,0,0,0-.708-.166,2.287,2.287,0,0,0-.779.138,3.146,3.146,0,0,0-.772.417l-.3-.406a3.033,3.033,0,0,1,.885-.461,3.144,3.144,0,0,1,.987-.157,1.752,1.752,0,0,1,1.065.293.922.922,0,0,1,.4.777.886.886,0,0,1-.085.394.855.855,0,0,1-.263.309,1.12,1.12,0,0,1,.482.376.922.922,0,0,1,.164.546,1.106,1.106,0,0,1-.549.922,2.375,2.375,0,0,1-1.383.38,3.145,3.145,0,0,1-1.194-.214,3.011,3.011,0,0,1-.989-.671Z" transform="translate(9.108 -555.82)" fill="#fff"/>
    <path id="Path_23" data-name="Path 23" d="M-163.9,314.361a9.4,9.4,0,0,0-.779.947,1.471,1.471,0,0,1-1.383.722c-1.206,0-2.411.078-3.617.129l-23.035.973q-6.863.286-13.728.567l-18.348.782c-1.517.065-3.034.145-4.553.207-.406.016-.643.148-.549.692l57.205-2.642v.21a1.932,1.932,0,0,1-.254.044c-3.875.277-7.751.569-11.628.825-3.767.249-7.539.461-11.3.692q-9.943.632-19.87,1.289-7.147.475-14.307,1a1.254,1.254,0,0,0-.818.516c-2.158,3.105-3.43,3.3-3.43,3.3a4.549,4.549,0,0,0,.491-.343,9.767,9.767,0,0,0,3.228-8.043c-.032-.692.316-.775.821-.848,4.355-.629,15.78-3.177,15.78-3.177h-.844q-7.866.339-15.736.692a.84.84,0,0,1-.941-.535,8.916,8.916,0,0,0-5.4-4.9.992.992,0,0,1-.535-.692c-.519-5.473-1-10.946-1.5-16.419-.062-.692-.143-1.4-.214-2.093h-.171c-.071.671-.152,1.339-.214,2.01-.493,5.5-.98,10.992-1.5,16.483a1,1,0,0,1-.523.712,8.91,8.91,0,0,0-5.445,4.936.759.759,0,0,1-.832.5q-7.732-.357-15.469-.692c-.406-.016-.816,0-1.224,0-.018.065,11.485,2.536,15.863,3.163.611.088.786.327.761.959a9.779,9.779,0,0,0,3.151,7.882c.175.161.341.334.51.5a14,14,0,0,1-3.336-3.384.906.906,0,0,0-.811-.565c-5.215-.346-10.429-.731-15.644-1.074-4.726-.314-9.452-.588-14.18-.883q-11.335-.706-22.673-1.425c-1.685-.108-3.366-.263-5.049-.4l.014-.263,57.376,2.649c.018-.883-.62-.692-1.031-.715-4.44-.2-8.883-.383-13.325-.572q-12.218-.521-24.437-1.049-12.59-.526-25.182-1.014a1.383,1.383,0,0,1-1.224-.65c-.231-.348-.514-.659-.883-1.123,0,.477.011.717,0,.954a1.891,1.891,0,0,0,1.738,2.1c4.016.348,42.7,3.557,44.747,3.742.788.069.989.477.567,1.141a1.273,1.273,0,0,1-.595.376,5.159,5.159,0,0,0-2.9,6.755,5.123,5.123,0,0,0,5.438,3.149,5.126,5.126,0,0,0,4.41-4.329,5.084,5.084,0,0,0-3.368-5.611.716.716,0,0,1-.551-.848c.023-.134.482-.286.731-.267,2.273.157,14.664,1.153,15.483,1.236.311.032.625.074.936.076.39,0,2.695,2.594,3.331,2.949a12.616,12.616,0,0,0,11.409-.371c.461-.3,2.448-2.49,2.607-2.536,1.342-.355,14.307-1.2,16.691-1.369.2-.016.413.141.62.219a6.929,6.929,0,0,1-.367.807c-.053.09-.242.095-.367.143A5.154,5.154,0,0,0-217,329.185a5.155,5.155,0,0,0,6.409,3.071,5.141,5.141,0,0,0,3.345-6.321,4.92,4.92,0,0,0-3.228-3.421c-.6-.217-.592-.692-.583-1.137,0-.124.473-.323.74-.346,2.047-.187,27.019-2.25,28.467-2.37,5.318-.445,10.639-.9,15.958-1.332A2.2,2.2,0,0,0-163.9,314.361Zm-66.164-1.236q4.98-.256,9.957-.461c1.06-.042,2.123-.115,3.184-.115l.014.032c-.475.074-9.245.984-13.157,1.282-.2.018-.217-.717.007-.738Zm-18.2.747c-.645,0-1.291-.069-1.937-.122-3.158-.263-7.024-.749-10.183-1.019,0,0,2.259-.046,3.859,0,2.589.088,5.176.231,7.762.36a1.845,1.845,0,0,1,.533.035c.18.074.141.747-.03.747Zm-18.249,18.422a4.193,4.193,0,0,1-3.573-2.121c2.552,2.335,5.072,2.305,7.6-.023a4.238,4.238,0,0,1-4.018,2.144Zm4.452-4.855a4.228,4.228,0,0,1-4.306,4.148,4.228,4.228,0,0,1-4.148-4.306,4.228,4.228,0,0,1,4.305-4.148A4.251,4.251,0,0,1-262.064,327.44Zm22.786-36.547h.191c.1,1.173.214,2.345.3,3.518q.461,5.945.876,11.893c.014.2-1.012.343-1.353.159-.071-.039-.032-.3-.032-.461q-.016-7.1-.032-14.206C-239.323,291.5-239.293,291.2-239.277,290.893Zm-6.626,23.471a22.814,22.814,0,0,1,1.316-2.328,1.42,1.42,0,0,1,1.01-.5q4.354-.059,8.707,0a1.514,1.514,0,0,1,1.037.574,19.434,19.434,0,0,1,1.245,2.215.556.556,0,0,1,.028.48c-.074.095-.316.108-.473.083a5.526,5.526,0,0,1-1.3-.311,4.724,4.724,0,0,1-1.1-1.487c.138,1.362.138,1.358-1.309,1.275-.445-.028-.892-.025-1.339-.028-.959,0-.959,0-1.118-.936-.141.288-.214.715-.461.858a2.533,2.533,0,0,1-1.047.076h-1.676c-.761,0-.8-.058-.664-.814.025-.15.058-.3.095-.48-.055.035-1.383,1.669-2.513,1.844a.654.654,0,0,1-.461-.1C-246,314.73-245.967,314.484-245.9,314.364Zm13.332,1.351a95.348,95.348,0,0,0-13.44.053C-244.72,314.677-234.586,314.567-232.571,315.715Zm-4.864,9.3c-3.979.592-5.519-.533-6.656-1.713a15.79,15.79,0,0,1-1.757-2.421.751.751,0,0,1,0-.717.906.906,0,0,1,.765-.136,18.27,18.27,0,0,0,11.7,0,.9.9,0,0,1,.761.145c.124.118.1.519,0,.722-1.04,2.029-2.471,3.776-4.816,4.12Zm25.714,7.264a4.127,4.127,0,0,1-4.244-2.188,5.281,5.281,0,0,0,3.767,1.775,5.293,5.293,0,0,0,3.774-1.7A4.053,4.053,0,0,1-211.721,332.281Zm3.772-4.885a4.231,4.231,0,0,1-4.274,4.186,4.23,4.23,0,0,1-4.186-4.274,4.23,4.23,0,0,1,4.211-4.187,4.261,4.261,0,0,1,4.249,4.272v0Z" transform="translate(314.621 -288.26)" fill="#c49b63"/>
    <path id="Path_24" data-name="Path 24" d="M14.912,433.48c-1.289,2.139-4.539,3.488-6.266,2.741C11.931,435.723,13.524,434.9,14.912,433.48Z" transform="translate(65.879 -400.002)" fill="#c49b63"/>
    <path id="Path_25" data-name="Path 25" d="M-116.462,441.979l.606.212-.205,1.07.164.06c.182-.26.364-.521.6-.855l.542.443-.62.966.127.118.814-.609c.355.327.355.327-.537,1.48l1.194-.364c.051.231.092.413.143.641l-1.063.36v.15l1.037.131c0,.207-.018.4-.028.625h-1.153l-.055.145,1.012.48c-.1.2-.207.4-.32.62l-1.051-.461-.15.207,1.035.625-.671.606-.869-.788-.131.094c.136.3.272.609.431.957l-.611.235-.586-.994-.138.051.071,1.19c-.309-.191-.572-.263-.657-.429a2.255,2.255,0,0,1-.106-.752l-.2-.03c-.108.332-.231.666-.339,1.035l-.6-.2.231-1.153-.134-.062c-.207.293-.417.583-.627.876l-.217.039c-.062-.231-.231-.491-.168-.692a2.588,2.588,0,0,1,.461-.692l-.118-.131-.922.65-.38-.556.9-.724-.065-.154-1.035.281-.157-.627,1.081-.39-.014-.182-1.044-.115c0-.2.021-.387.035-.632l1.208.071.058-.138-1.049-.553c.1-.2.2-.383.307-.595l1.063.482.106-.108-.777-.835.5-.461.86.793.129-.071-.431-.95c.32-.231.32-.231,1.3.692-.032-.4-.055-.717-.088-1.109l.662-.046c.051.4.1.731.141,1.065l.187.023C-116.681,442.671-116.585,442.362-116.462,441.979Zm-.848,5.7a2.146,2.146,0,0,0,2.061-2.059,2.063,2.063,0,0,0-2.059-2.068,2.063,2.063,0,0,0-2.068,2.059,2.063,2.063,0,0,0,2.059,2.068Z" transform="translate(165.64 -406.488)" fill="#c49b63"/>
    <path id="Path_26" data-name="Path 26" d="M119.024,449.2l-.606.2c-.122-.369-.231-.7-.348-1.047-.523.254.127,1.277-.934,1.063.016-.35.032-.692.046-1.024l-.138-.055-.558.973-.636-.2c.164-.36.3-.666.438-.971l-.138-.111-.816.761-.611-.569.894-.65-.106-.161-1.058.42c-.095-.178-.2-.362-.318-.588l.908-.461v-.131h-1.086c-.018-.279-.032-.461-.046-.692l1.021-.095.035-.143-1.06-.369c.032-.208.065-.408.1-.664l1.153.341c-.062-.609-1.358-.592-.539-1.485l.922.662c.184-.537-1.1-1.037.025-1.524l.572.841c.5-.33-.655-1.337.6-1.289.085.316.178.643.267.971h.184c.051-.327.1-.655.159-1.04h.664c-.028.344-.053.662-.078,1,.579.037.344-1.432,1.3-.613-.148.311-.3.625-.44.936l.1.106.874-.772.675.526-1.037.632.168.231,1.072-.477.346.59-1,.5.046.138h1.134c.018.194.035.378.055.6l-1.014.113-.048.178,1.047.4c-.018.157-.041.357-.071.627l-1.06-.265-.092.124.878.74-.334.562-.957-.657c-.231.521,1.116,1-.028,1.5l-.6-.83-.157.071C118.863,448.459,118.934,448.791,119.024,449.2Zm-3.53-3.41a2.075,2.075,0,1,0,0-.435A2.075,2.075,0,0,0,115.494,445.794Z" transform="translate(-15.115 -406.688)" fill="#c49b63"/>
    <path id="Path_27" data-name="Path 27" d="M-111.045,456.333a1.819,1.819,0,0,0,2.743-.023,1.27,1.27,0,0,1-.556,1.422,1.409,1.409,0,0,1-1.634,0A1.182,1.182,0,0,1-111.045,456.333Z" transform="translate(158.012 -417.568)" fill="#c49b63"/>
    <path id="Path_28" data-name="Path 28" d="M123.61,456.21c.952.837,1.844.941,2.727,0a1.174,1.174,0,0,1-.461,1.4,1.413,1.413,0,0,1-1.628.081A1.338,1.338,0,0,1,123.61,456.21Z" transform="translate(-22.567 -417.491)" fill="#c49b63"/>
  </g>
</svg>
