<svg xmlns="http://www.w3.org/2000/svg" width="18.518" height="13.047" viewBox="0 0 18.518 13.047">
  <g id="Group_41167" data-name="Group 41167" transform="translate(-217.749 -54.727)">
    <path id="Path_78006" data-name="Path 78006" d="M217.749,56.141c.027-.1.05-.2.082-.294a1.628,1.628,0,0,1,1.551-1.118c1.133,0,2.266,0,3.4,0h11.768a1.621,1.621,0,0,1,1.657,1.212,1.936,1.936,0,0,1,.058.482q0,4.827,0,9.654a1.627,1.627,0,0,1-1.7,1.7H219.491a1.627,1.627,0,0,1-1.715-1.347.477.477,0,0,0-.027-.066Zm1.9-.318c.055.06.093.1.133.145l6.727,6.761a.634.634,0,0,0,1.007,0l6.74-6.773c.036-.036.067-.076.113-.129Zm-.014,10.846h14.751l-4.655-4.622c-.035.033-.083.077-.129.124-.451.453-.9.909-1.354,1.36a1.709,1.709,0,0,1-2.475,0c-.274-.273-.544-.548-.817-.822l-.663-.664Zm-.788-10.031v9.222l4.644-4.61Zm16.323,9.23V56.663l-4.64,4.6Z" transform="translate(0 0)" fill="#c49b63"/>
  </g>
</svg>
